<svg xmlns="http://www.w3.org/2000/svg" viewBox="0 0 512 512"><path fill="#eaeaea" d="M495.664 318.553l-17.338-31.233-67.478 37.458-24.212-13.979 24.58-12.153-15.833-32.02-45.925 22.709-29.963-17.3c1.298-5.133 1.993-10.503 1.993-16.035s-.695-10.902-1.993-16.035l29.963-17.3 45.925 22.709 15.833-32.02-24.58-12.154 24.212-13.979 67.478 37.458 17.338-31.231-48.739-27.056 39.707-22.924-17.86-30.934-39.707 22.924.938-55.737-35.716-.6-1.298 77.167-24.212 13.979 1.765-27.362-35.647-2.299-3.297 51.126-30.004 17.323c-7.675-7.455-17.163-13.044-27.733-16.046v-34.611l42.628-28.42-19.814-29.723-22.814 15.209V87.508l66.179-39.707-18.379-30.631-47.801 28.68V0h-35.72v45.85l-47.801-28.68-18.378 30.631 66.179 39.707v27.956l-22.814-15.209-19.814 29.721 42.628 28.42v34.611c-10.57 3.002-20.057 8.591-27.733 16.046l-30.004-17.323-3.297-51.126-35.647 2.299 1.765 27.362-24.212-13.979-1.298-77.167-35.716.6.938 55.737-39.707-22.923-17.86 30.934 39.707 22.924-48.739 27.057 17.338 31.231 67.478-37.458 24.212 13.979-24.58 12.154 15.833 32.02 45.925-22.709 29.963 17.3c-1.298 5.133-1.993 10.503-1.993 16.035s.695 10.902 1.993 16.035l-29.963 17.3-45.925-22.709-15.833 32.02 24.58 12.153-24.212 13.979-67.479-37.458-17.338 31.231 48.739 27.056-39.707 22.926 17.86 30.934 39.707-22.924-.938 55.737 35.716.6 1.298-77.167 24.212-13.979-1.765 27.362 35.647 2.299 3.297-51.126 30.004-17.323c7.675 7.455 17.163 13.044 27.733 16.046v34.611l-42.628 28.42 19.814 29.721 22.814-15.208v27.956l-66.179 39.707 18.378 30.631 47.801-28.68V512h35.721v-45.85l47.801 28.68 18.378-30.631-66.179-39.707v-27.956l22.814 15.209 19.814-29.721-42.628-28.42v-34.611c10.57-3.002 20.057-8.591 27.733-16.046l30.004 17.323 3.297 51.126 35.647-2.299-1.765-27.362 24.212 13.979 1.298 77.167 35.716-.6-.938-55.737 39.707 22.924 17.86-30.934-39.707-22.924 48.74-27.057z"/></svg>